<mxfile host="65bd71144e">
    <diagram id="BbtLLmYR1DNalcOzzDQc" name="Page-1">
        <mxGraphModel dx="2801" dy="857" grid="1" gridSize="10" guides="1" tooltips="1" connect="1" arrows="1" fold="1" page="1" pageScale="1" pageWidth="827" pageHeight="1169" math="0" shadow="0">
            <root>
                <mxCell id="0"/>
                <mxCell id="1" parent="0"/>
                <mxCell id="5" value="_app.js" style="rounded=1;whiteSpace=wrap;html=1;strokeColor=#FFFF99;strokeWidth=3;" parent="1" vertex="1">
                    <mxGeometry x="220" y="110" width="90" height="40" as="geometry"/>
                </mxCell>
                <mxCell id="6" value="LargeCard" style="rounded=1;whiteSpace=wrap;html=1;strokeWidth=3;strokeColor=#FF9933;" parent="1" vertex="1">
                    <mxGeometry x="500" y="260" width="90" height="40" as="geometry"/>
                </mxCell>
                <mxCell id="7" value="Banner" style="rounded=1;whiteSpace=wrap;html=1;strokeWidth=3;strokeColor=#3333FF;" parent="1" vertex="1">
                    <mxGeometry x="70" y="270" width="90" height="40" as="geometry"/>
                </mxCell>
                <mxCell id="8" value="ProposedListOfCities" style="rounded=1;whiteSpace=wrap;html=1;strokeWidth=3;strokeColor=#FF9933;" parent="1" vertex="1">
                    <mxGeometry x="185" y="270" width="160" height="40" as="geometry"/>
                </mxCell>
                <mxCell id="9" value="ListCategories" style="rounded=1;whiteSpace=wrap;html=1;strokeColor=#FF9933;strokeWidth=3;" parent="1" vertex="1">
                    <mxGeometry x="400" y="270" width="90" height="40" as="geometry"/>
                </mxCell>
                <mxCell id="10" value="index.js" style="rounded=1;whiteSpace=wrap;html=1;strokeWidth=3;strokeColor=#FFFF99;" parent="1" vertex="1">
                    <mxGeometry x="220" y="180" width="90" height="40" as="geometry"/>
                </mxCell>
                <mxCell id="11" value="&lt;b&gt;&lt;font color=&quot;#ff3333&quot; style=&quot;font-size: 18px;&quot;&gt;Représentation du Clone AirBNB :&lt;/font&gt;&lt;/b&gt;" style="rounded=1;whiteSpace=wrap;html=1;fillColor=none;strokeColor=none;" parent="1" vertex="1">
                    <mxGeometry x="100" y="30" width="300" height="30" as="geometry"/>
                </mxCell>
                <mxCell id="20" value="&lt;b&gt;&lt;font style=&quot;font-size: 11px;&quot;&gt;Children&lt;/font&gt;&lt;/b&gt;" style="rounded=1;whiteSpace=wrap;html=1;strokeColor=#FFFFFF;strokeWidth=3;" parent="1" vertex="1">
                    <mxGeometry x="494" y="107.5" width="55" height="35" as="geometry"/>
                </mxCell>
                <mxCell id="21" style="edgeStyle=orthogonalEdgeStyle;html=1;exitX=1;exitY=0.5;exitDx=0;exitDy=0;entryX=0;entryY=0.5;entryDx=0;entryDy=0;fontSize=18;fontColor=none;strokeWidth=1;strokeColor=#3333FF;" parent="1" source="24" target="25" edge="1">
                    <mxGeometry relative="1" as="geometry"/>
                </mxCell>
                <mxCell id="22" style="edgeStyle=orthogonalEdgeStyle;html=1;exitX=1;exitY=0.5;exitDx=0;exitDy=0;entryX=0;entryY=0.5;entryDx=0;entryDy=0;fontSize=18;fontColor=none;strokeWidth=1;strokeColor=#3333FF;" parent="1" source="24" target="20" edge="1">
                    <mxGeometry relative="1" as="geometry"/>
                </mxCell>
                <mxCell id="23" style="edgeStyle=orthogonalEdgeStyle;html=1;exitX=1;exitY=0.5;exitDx=0;exitDy=0;entryX=0;entryY=0.5;entryDx=0;entryDy=0;fontSize=18;fontColor=none;strokeWidth=1;strokeColor=#3333FF;" parent="1" source="24" target="26" edge="1">
                    <mxGeometry relative="1" as="geometry"/>
                </mxCell>
                <mxCell id="24" value="&lt;b&gt;&lt;font style=&quot;font-size: 11px;&quot;&gt;Layout&lt;/font&gt;&lt;/b&gt;" style="rounded=1;whiteSpace=wrap;html=1;strokeColor=#3333FF;strokeWidth=3;" parent="1" vertex="1">
                    <mxGeometry x="390" y="105" width="70" height="40" as="geometry"/>
                </mxCell>
                <mxCell id="25" value="&lt;b&gt;&lt;font style=&quot;font-size: 11px;&quot;&gt;Navbar&lt;/font&gt;&lt;/b&gt;" style="rounded=1;whiteSpace=wrap;html=1;strokeColor=#3333FF;strokeWidth=3;" parent="1" vertex="1">
                    <mxGeometry x="494" y="70" width="55" height="30" as="geometry"/>
                </mxCell>
                <mxCell id="26" value="&lt;b&gt;&lt;font style=&quot;font-size: 11px;&quot;&gt;Footer&lt;/font&gt;&lt;/b&gt;" style="rounded=1;whiteSpace=wrap;html=1;strokeColor=#3333FF;strokeWidth=3;" parent="1" vertex="1">
                    <mxGeometry x="499" y="155" width="81" height="35" as="geometry"/>
                </mxCell>
                <mxCell id="27" value="" style="rounded=1;whiteSpace=wrap;html=1;dashed=1;strokeWidth=3;fillColor=none;strokeColor=#3333FF;" parent="1" vertex="1">
                    <mxGeometry x="205" y="95" width="120" height="70" as="geometry"/>
                </mxCell>
                <mxCell id="29" value="&lt;b&gt;&lt;font style=&quot;font-size: 11px;&quot;&gt;ToastContainer&lt;/font&gt;&lt;/b&gt;" style="rounded=1;whiteSpace=wrap;html=1;strokeColor=#CC00CC;strokeWidth=3;dashed=1;" parent="1" vertex="1">
                    <mxGeometry x="60" y="120" width="100" height="40" as="geometry"/>
                </mxCell>
                <mxCell id="30" value="" style="rounded=1;whiteSpace=wrap;html=1;strokeWidth=3;dashed=1;fillColor=none;strokeColor=#CC00CC;" parent="1" vertex="1">
                    <mxGeometry x="190" y="80" width="150" height="100" as="geometry"/>
                </mxCell>
                <mxCell id="12" value="&lt;b&gt;&lt;font size=&quot;1&quot; color=&quot;#ff99cc&quot; style=&quot;&quot;&gt;&lt;u style=&quot;font-size: 18px;&quot;&gt;Légende :&lt;/u&gt;&lt;/font&gt;&lt;/b&gt;" style="rounded=1;whiteSpace=wrap;html=1;align=center;horizontal=1;verticalAlign=top;" parent="1" vertex="1">
                    <mxGeometry x="-170" y="80" width="200" height="350" as="geometry"/>
                </mxCell>
                <mxCell id="13" value="&lt;b&gt;&lt;font style=&quot;font-size: 11px;&quot;&gt;Layouts&lt;/font&gt;&lt;/b&gt;" style="rounded=1;whiteSpace=wrap;html=1;strokeColor=#3333FF;strokeWidth=3;" parent="1" vertex="1">
                    <mxGeometry x="-149" y="180" width="70" height="40" as="geometry"/>
                </mxCell>
                <mxCell id="14" value="&lt;b&gt;&lt;font style=&quot;font-size: 11px;&quot;&gt;Pages&lt;/font&gt;&lt;/b&gt;" style="rounded=1;whiteSpace=wrap;html=1;strokeColor=#FFFF99;strokeWidth=3;" parent="1" vertex="1">
                    <mxGeometry x="-150" y="120" width="72" height="40" as="geometry"/>
                </mxCell>
                <mxCell id="15" value="&lt;b&gt;&lt;font style=&quot;font-size: 11px;&quot;&gt;Commons&lt;/font&gt;&lt;/b&gt;" style="rounded=1;whiteSpace=wrap;html=1;strokeColor=#FF9933;strokeWidth=3;" parent="1" vertex="1">
                    <mxGeometry x="-60" y="120" width="70" height="40" as="geometry"/>
                </mxCell>
                <mxCell id="16" value="&lt;b&gt;&lt;font style=&quot;font-size: 11px;&quot;&gt;Condition (if/else)&lt;br&gt;&lt;/font&gt;&lt;/b&gt;" style="rounded=1;whiteSpace=wrap;html=1;dashed=1;strokeColor=#FF3333;strokeWidth=3;" parent="1" vertex="1">
                    <mxGeometry x="-149" y="240" width="69" height="40" as="geometry"/>
                </mxCell>
                <mxCell id="17" value="&lt;b&gt;&lt;font style=&quot;font-size: 11px;&quot;&gt;Providers&lt;/font&gt;&lt;/b&gt;" style="rounded=1;whiteSpace=wrap;html=1;dashed=1;strokeWidth=3;strokeColor=#66FF66;" parent="1" vertex="1">
                    <mxGeometry x="-60" y="180" width="68" height="40" as="geometry"/>
                </mxCell>
                <mxCell id="18" value="" style="endArrow=none;html=1;strokeColor=#FFFFFF;strokeWidth=3;fontSize=18;fontColor=none;" parent="1" edge="1">
                    <mxGeometry width="50" height="50" relative="1" as="geometry">
                        <mxPoint x="-137" y="309.65999999999985" as="sourcePoint"/>
                        <mxPoint x="3" y="309.65999999999985" as="targetPoint"/>
                    </mxGeometry>
                </mxCell>
                <mxCell id="19" value="&lt;font color=&quot;#ff3333&quot; style=&quot;font-size: 11px;&quot;&gt;&lt;b&gt;Functions&lt;/b&gt;&lt;/font&gt;&lt;font style=&quot;font-size: 11px;&quot;&gt;&lt;b style=&quot;&quot;&gt;&lt;font color=&quot;#ede3e3&quot;&gt;,&lt;/font&gt;&lt;br&gt;&lt;font color=&quot;#3333ff&quot;&gt;props&lt;/font&gt;&lt;/b&gt;&lt;b style=&quot;color: rgb(237, 227, 227);&quot;&gt;,&lt;br&gt;&lt;/b&gt;&lt;font color=&quot;#66ff66&quot;&gt;data (Folder utils or others folders)&lt;/font&gt;&lt;/font&gt;&lt;font style=&quot;font-size: 11px;&quot; color=&quot;#ede3e3&quot;&gt;,&lt;br&gt;&lt;/font&gt;" style="rounded=1;whiteSpace=wrap;html=1;strokeColor=#FFFFFF;strokeWidth=3;fontSize=18;fontColor=none;labelBorderColor=none;horizontal=1;verticalAlign=top;align=center;" parent="1" vertex="1">
                    <mxGeometry x="-158.5" y="320" width="177" height="80" as="geometry"/>
                </mxCell>
                <mxCell id="28" value="&lt;b&gt;&lt;font style=&quot;font-size: 11px;&quot;&gt;Containers&lt;/font&gt;&lt;/b&gt;" style="rounded=1;whiteSpace=wrap;html=1;strokeColor=#CC00CC;strokeWidth=3;dashed=1;" parent="1" vertex="1">
                    <mxGeometry x="-61" y="240" width="70" height="40" as="geometry"/>
                </mxCell>
            </root>
        </mxGraphModel>
    </diagram>
</mxfile>